<svg fill="none" height="20" viewBox="0 0 22 20" width="22" xmlns="http://www.w3.org/2000/svg"><path clip-rule="evenodd" d="m19.1585 10.6702-7.8643 7.9484c-.1619.1636-.4255.1636-.5884 0l-7.86435-7.9484c-1.02948-1.04159-1.59715-2.42612-1.59715-3.89981 0-1.47368.56767-2.85821 1.59715-3.89976 1.06477-1.07511 2.46163-1.61319 3.85953-1.61319 1.39789 0 2.79475.53808 3.85952 1.61319.2428.24544.6362.24544.88 0 2.1275-2.150215 5.5895-2.150215 7.718 0 1.0295 1.0405 1.5972 2.42503 1.5972 3.89976 0 1.47369-.5677 2.85927-1.5972 3.89981zm.8801-8.69007c-2.4699-2.496353-6.4073-2.632708-9.0381-.40697-2.63077-2.225738-6.56708-2.089383-9.03805.40697-1.266096 1.27964-1.96245 2.97988-1.96245 4.79026 0 1.80933.696354 3.51061 1.96245 4.79031l7.86433 7.9484c.32272.3273.74822.4909 1.17372.4909s.85-.1636 1.1738-.4909l7.8643-7.9484c1.265-1.2786 1.9614-2.97993 1.9614-4.79031s-.6964-3.51167-1.9614-4.79026z" fill="#b6b6b6" fill-rule="evenodd"/></svg>