<svg fill="none" height="30" viewBox="0 0 30 30" width="30" xmlns="http://www.w3.org/2000/svg"><path d="m24.0632 13.0611-.3544.3527zm-10.5761-8.389-.3707-.33546zm-7.22864 8.7348 7.59944-8.39935-.7415-.67091-7.59947 8.39936zm-.25846 11.5931v-10.9221h-1v10.9221zm4.5 1h-3.5v1h3.5zm2-1v-4.5h-1v4.5zm1-5.5h3v-1h-3zm4 1v4.5h1v-4.5zm5.5 5.5h-3.5v1h3.5zm1-11.8808v10.8808h1v-10.8808zm-8.6918-9.14615 8.4006 8.44075.7088-.7054-8.4006-8.44077zm9.6918 9.14615c0-.5288-.2094-1.036-.5824-1.4108l-.7088.7054c.1865.1874.2912.441.2912.7054zm-2 12.8808c1.1046 0 2-.8954 2-2h-1c0 .5523-.4477 1-1 1zm-5.5-2c0 1.1046.8954 2 2 2v-1c-.5523 0-1-.4477-1-1zm-1-5.5c.5523 0 1 .4477 1 1h1c0-1.1046-.8954-2-2-2zm-4 1c0-.5523.4477-1 1-1v-1c-1.1046 0-2 .8954-2 2zm-2 6.5c1.1046 0 2-.8954 2-2h-1c0 .5523-.4477 1-1 1zm-5.5-2c0 1.1046.89543 2 2 2v-1c-.55228 0-1-.4477-1-1zm8.8579-19.99245c.3843-.42478 1.0462-.44052 1.4503-.0345l.7088-.70542c-.8082-.81204-2.132-.78055-2.9006.06901zm-8.34097 7.72845c-.3327.3678-.51693.846-.51693 1.3419h1c0-.248.09211-.4871.25846-.671z" fill="#000"/></svg>