<?xml version="1.0"?>
<svg xmlns="http://www.w3.org/2000/svg" viewBox="0 0 16 16">
    <path style="line-height:normal;text-indent:0;text-align:start;text-decoration-line:none;text-decoration-style:solid;text-decoration-color:#000;text-transform:none;block-progression:tb;isolation:auto;mix-blend-mode:normal" d="M 2.7402344 2 L 2.3398438 2.0078125 L 2.3144531 2.0117188 C 1.5738677 2.1031663 1 2.7403268 1 3.5 L 1 8.5 C 1 9.3225314 1.6774686 10 2.5 10 L 3.9941406 10 L 3.9941406 12 L 6.6621094 10 L 9.2929688 10 L 11.292969 12 L 11.005859 12 L 11.005859 13 L 9.671875 12 L 7 12 L 6.5 12 C 6.299 12 6.1288281 11.879984 6.0488281 11.708984 L 5.2421875 12.3125 C 5.5101875 12.7255 5.973 13 6.5 13 L 7 13 L 9.3378906 13 L 12.005859 15 L 12.005859 13 L 12.292969 13 L 13.271484 13.978516 L 13.978516 13.271484 L 2.7402344 2.0332031 L 2.7402344 2 z M 4.1210938 2 L 5.1210938 3 L 9.5 3 C 9.776 3 10 3.224 10 3.5 L 10 7.8789062 L 10.957031 8.8378906 C 10.983031 8.7288906 11 8.616 11 8.5 L 11 3.5 C 11 2.673 10.327 2 9.5 2 L 4.1210938 2 z M 2.3320312 3.0390625 L 8.2929688 9 L 6.328125 9 L 4.9941406 10 L 4.9941406 9 L 2.5 9 C 2.2185314 9 2 8.7814686 2 8.5 L 2 3.5 C 2 3.2798208 2.1401526 3.1077217 2.3320312 3.0390625 z M 12 5 L 12 6 L 13.5 6 C 13.776 6 14 6.224 14 6.5 L 14 11.5 C 14 11.607 13.959344 11.70025 13.902344 11.78125 L 14.615234 12.494141 C 14.852234 12.228141 15 11.883 15 11.5 L 15 6.5 C 15 5.673 14.327 5 13.5 5 L 12 5 z" font-weight="400" font-family="sans-serif" white-space="normal" overflow="visible"/>
</svg>
