<svg enable-background="new 0 0 285 279" viewBox="0 0 285 279" xmlns="http://www.w3.org/2000/svg"><g fill="#fff"><path d="m73.05 51.59h116.85c.22 0 .42.03.63.08 3.36.93 8.21 2.74 12.97 6.45 15.31 11.93 14.56 31.69 14.46 33.43-.15 2.73-1.06 19.42-14.46 28.65-4.23 2.91-8.44 4.21-11.37 4.85-.17.04-.33.05-.5.05h-67.13c-1.28 0-2.31-1.02-2.31-2.28v-18.32c0-1.26 1.03-2.28 2.31-2.28h59.94c.54 0 1.06-.18 1.47-.52 3.06-2.52 15.12-13.94 0-26.71-.42-.35-.96-.54-1.51-.54h-88.12c-1.28 0-2.31 1.02-2.31 2.28v96.22c0 1.85-2.13 2.93-3.66 1.85l-18.61-13.07c-.61-.43-.97-1.12-.97-1.85v-106.01c.01-1.26 1.04-2.28 2.32-2.28z"/><path d="m122.18 148.71v63.42c0 .75.36 1.46.98 1.91l20.09 14.5c1.59 1.14 3.82.03 3.82-1.91v-53.42c0-1.31 1.08-2.36 2.4-2.36h35.03c1.33 0 2.4-1.06 2.4-2.36v-19.78c0-1.31-1.08-2.36-2.4-2.36h-59.92c-1.32 0-2.4 1.05-2.4 2.36z"/></g></svg>